<?xml version="1.0" standalone="no"?>
<!DOCTYPE svg PUBLIC "-//W3C//DTD SVG 20010904//EN"
 "http://www.w3.org/TR/2001/REC-SVG-20010904/DTD/svg10.dtd">
<svg version="1.0" xmlns="http://www.w3.org/2000/svg"
 width="183.000000pt" height="183.000000pt" viewBox="0 0 183.000000 183.000000"
 preserveAspectRatio="xMidYMid meet">
<metadata>
Created by potrace 1.14, written by Peter Selinger 2001-2017
</metadata>
<g transform="translate(0.000000,183.000000) scale(0.100000,-0.100000)"
fill="#000000" stroke="none">
<path d="M198 1142 c-43 -2 -78 -7 -78 -12 0 -6 8 -10 19 -10 43 0 42 -21 -10
-175 -51 -153 -68 -185 -101 -185 -10 0 -18 -4 -18 -10 0 -5 47 -9 115 -9 71
0 113 4 110 9 -4 6 -16 10 -29 10 -12 0 -30 6 -39 13 -16 11 -16 16 4 75 20
58 23 62 52 63 108 2 170 44 180 120 6 49 -16 85 -60 100 -44 15 -45 15 -145
11z m112 -42 c28 -28 26 -81 -5 -119 -24 -28 -90 -59 -102 -48 -5 6 6 46 39
135 21 56 36 64 68 32z"/>
<path d="M1013 1062 c-13 -8 -103 -265 -103 -294 0 -20 26 -35 56 -33 27 3 82
35 88 52 7 18 -10 16 -39 -3 -42 -27 -45 -8 -14 84 l29 88 40 -3 c29 -1 40 2
40 13 0 10 -8 13 -29 9 -39 -7 -44 4 -26 54 14 40 14 41 -8 41 -12 0 -28 -4
-34 -8z"/>
<path d="M1722 1062 c-13 -9 -102 -264 -102 -293 0 -20 10 -28 42 -34 29 -6
114 43 100 57 -7 7 -18 5 -33 -6 -13 -9 -28 -16 -33 -16 -12 0 -2 54 24 123
22 58 29 63 84 57 11 -1 16 3 14 12 -3 8 -18 12 -36 11 -37 -2 -37 0 -17 56
14 40 14 41 -8 41 -12 0 -28 -4 -35 -8z"/>
<path d="M765 964 c-30 -20 -35 -21 -33 -7 2 13 -5 17 -28 19 -30 1 -31 0 -62
-95 -49 -153 -48 -141 -14 -141 26 0 31 6 47 48 22 57 80 148 101 156 27 10
25 -19 -6 -98 -25 -61 -29 -80 -19 -92 19 -23 74 -17 106 11 26 22 26 24 7 25
-11 0 -25 -5 -31 -11 -23 -23 -20 9 8 76 24 59 37 115 26 115 -1 0 -17 4 -34
9 -27 8 -38 5 -68 -15z"/>
<path d="M1242 978 c-39 -10 -109 -73 -132 -119 -23 -44 -26 -101 -7 -117 16
-14 61 -7 93 15 22 14 24 14 24 -1 0 -9 6 -17 13 -17 6 -1 19 -2 27 -3 27 -3
67 15 91 40 22 23 22 24 2 24 -11 0 -26 -7 -33 -15 -7 -8 -16 -15 -21 -15 -16
0 -9 33 25 122 l33 86 -43 4 c-24 2 -56 0 -72 -4z m12 -34 c22 -8 20 -37 -5
-87 -28 -54 -68 -90 -85 -76 -15 13 -11 40 15 90 17 32 51 79 57 79 1 0 9 -3
18 -6z"/>
<path d="M1565 982 c-11 -2 -25 -8 -32 -14 -7 -6 -14 -5 -18 2 -5 8 -52 7 -60
-2 -2 -2 -16 -46 -33 -98 -17 -52 -34 -103 -38 -113 -6 -16 -2 -18 26 -15 30
3 35 8 50 53 25 73 57 133 78 144 15 8 18 6 18 -12 -1 -26 41 -37 55 -15 25
38 -2 80 -46 70z"/>
<path d="M472 954 c-114 -90 -130 -235 -25 -218 45 7 110 41 118 62 10 26 -3
26 -39 -2 -43 -32 -63 -33 -78 -2 -13 29 -5 54 19 62 85 29 131 72 117 109
-10 25 -74 19 -112 -11z m32 -45 c-18 -20 -34 -25 -34 -11 0 16 44 56 48 43 2
-7 -4 -21 -14 -32z"/>
</g>
</svg>
